<svg width="944" height="165" viewBox="0 0 944 165" fill="none" xmlns="http://www.w3.org/2000/svg">
<path d="M45.7031 20.8643C44.2383 20.8643 42.9199 20.5469 41.748 19.9121C40.5762 19.2285 38.916 18.9111 36.7676 18.96C30.7617 19.0088 27.7832 23.3057 27.832 31.8506L27.9053 36.9043H43.0664C44.4824 36.9043 45.6787 37.4658 46.6553 38.5889C47.6807 39.6631 48.1934 40.9082 48.1934 42.3242C48.1934 43.3984 47.7051 44.4727 46.7285 45.5469C45.752 46.6211 44.7754 47.1582 43.7988 47.1582H27.9053L28.0518 106.191C28.0518 107.705 27.5146 108.999 26.4404 110.073C25.3662 111.147 24.0723 111.685 22.5586 111.685C21.0449 111.685 19.751 111.123 18.6768 110C17.6025 108.926 17.0654 107.632 17.0654 106.118L16.9189 47.1582H6.73828C5.22461 47.1582 3.97949 46.6699 3.00293 45.6934C2.0752 44.668 1.61133 43.3008 1.61133 41.5918C1.61133 40.6152 2.05078 39.6387 2.92969 38.6621C3.85742 37.6367 4.78516 37.124 5.71289 37.124L16.9189 36.9043V32.3633C16.9189 24.6484 18.457 18.7158 21.5332 14.5654C24.6582 10.415 29.9072 8.33984 37.2803 8.33984C38.5498 8.33984 40.3076 8.53516 42.5537 8.92578C44.7998 9.31641 46.8506 10 48.7061 10.9766C50.5615 11.9043 51.4893 13.2227 51.4893 14.9316C51.4893 16.5918 50.9766 18.0078 49.9512 19.1797C48.9746 20.3027 47.5586 20.8643 45.7031 20.8643ZM91.04 34.9268C96.2646 34.9268 100.952 36.4404 105.103 39.4678C109.302 42.4951 112.964 45.6934 116.089 49.0625L116.748 39.834C116.748 38.418 117.139 37.2217 117.92 36.2451C118.701 35.2197 119.8 34.707 121.216 34.707C122.632 34.707 123.828 35.2197 124.805 36.2451C125.83 37.2217 126.343 38.418 126.343 39.834V106.045C126.343 107.461 125.83 108.682 124.805 109.707C123.828 110.684 122.632 111.172 121.216 111.172C119.8 111.172 118.579 110.684 117.554 109.707C116.577 108.682 116.089 107.461 116.089 106.045V97.6953C112.866 101.211 109.033 104.385 104.59 107.217C100.195 110.049 95.5566 111.465 90.6738 111.465C85.6445 111.465 80.9814 110.439 76.6846 108.389C72.3877 106.289 68.6279 103.457 65.4053 99.8926C62.1826 96.3281 59.668 92.2754 57.8613 87.7344C56.1035 83.1445 55.2246 78.335 55.2246 73.3057C55.2246 68.3252 56.1035 63.54 57.8613 58.9502C59.668 54.3115 62.1826 50.21 65.4053 46.6455C68.6768 43.0322 72.4854 40.1758 76.8311 38.0762C81.1768 35.9766 85.9131 34.9268 91.04 34.9268ZM116.455 72.8662C116.455 68.1299 115.308 63.7354 113.013 59.6826C110.767 55.5811 107.715 52.2607 103.857 49.7217C100.049 47.1826 95.8008 45.9131 91.1133 45.9131C86.377 45.9131 82.1289 47.207 78.3691 49.7949C74.6094 52.3828 71.6309 55.7764 69.4336 59.9756C67.2852 64.126 66.2109 68.5693 66.2109 73.3057C66.2109 77.9932 67.2852 82.4121 69.4336 86.5625C71.582 90.7129 74.4873 94.082 78.1494 96.6699C81.8604 99.209 86.0352 100.479 90.6738 100.479C95.3613 100.479 99.6582 99.1846 103.564 96.5967C107.471 93.96 110.596 90.542 112.939 86.3428C115.283 82.0947 116.455 77.6025 116.455 72.8662ZM199.805 50.6006C201.416 48.0127 203.394 45.498 205.737 43.0566C208.081 40.6152 210.864 38.6133 214.087 37.0508C217.31 35.4883 220.996 34.707 225.146 34.707C231.348 34.707 236.279 36.1963 239.941 39.1748C243.604 42.1045 246.24 46.1328 247.852 51.2598C249.512 56.3867 250.342 62.1973 250.342 68.6914L250.415 105.605C250.415 107.119 249.878 108.413 248.804 109.487C247.729 110.562 246.436 111.099 244.922 111.099C243.408 111.099 242.114 110.562 241.04 109.487C239.966 108.364 239.429 107.046 239.429 105.532L239.355 68.6914C239.355 64.6875 238.965 60.9521 238.184 57.4854C237.451 54.0186 236.06 51.2109 234.009 49.0625C231.958 46.9141 228.955 45.8398 225 45.8398C219.873 45.8398 215.674 46.9385 212.402 49.1357C209.131 51.2842 206.738 54.1162 205.225 57.6318C203.711 61.0986 202.93 64.7852 202.881 68.6914L202.734 105.825C202.734 107.339 202.197 108.633 201.123 109.707C200.049 110.781 198.755 111.318 197.241 111.318C195.728 111.318 194.434 110.781 193.359 109.707C192.285 108.584 191.748 107.266 191.748 105.752L191.675 68.6914C191.675 64.5898 191.284 60.8057 190.503 57.3389C189.722 53.8721 188.257 51.0889 186.108 48.9893C184.009 46.8896 180.957 45.8398 176.953 45.8398C169.971 45.8398 164.575 47.9883 160.767 52.2852C157.007 56.5332 155.127 62.002 155.127 68.6914L155.054 105.972C155.054 107.485 154.517 108.779 153.442 109.854C152.368 110.928 151.074 111.465 149.561 111.465C148.047 111.465 146.753 110.928 145.679 109.854C144.604 108.73 144.067 107.412 144.067 105.898L143.994 39.9805C144.092 38.4668 144.653 37.2217 145.679 36.2451C146.704 35.2197 147.974 34.707 149.487 34.707C151.05 34.707 152.295 35.2197 153.223 36.2451C154.199 37.2217 154.663 38.4912 154.614 40.0537L154.98 48.6963C156.201 46.5967 157.91 44.4727 160.107 42.3242C162.354 40.1758 164.893 38.3691 167.725 36.9043C170.605 35.4395 173.608 34.707 176.733 34.707C182.642 34.707 187.5 36.3184 191.309 39.541C195.166 42.7148 197.998 46.4014 199.805 50.6006ZM274.512 23.7939C272.412 23.7939 270.557 23.0371 268.945 21.5234C267.383 20.0098 266.602 18.1787 266.602 16.0303C266.602 13.8818 267.383 12.0508 268.945 10.5371C270.557 9.02344 272.412 8.2666 274.512 8.2666C276.66 8.2666 278.516 9.02344 280.078 10.5371C281.641 12.0508 282.422 13.8818 282.422 16.0303C282.422 18.1787 281.641 20.0098 280.078 21.5234C278.516 23.0371 276.66 23.7939 274.512 23.7939ZM269.165 39.6875C269.165 38.418 269.751 37.3193 270.923 36.3916C272.095 35.415 273.193 34.9268 274.219 34.9268C275.928 34.9268 277.344 35.4395 278.467 36.4648C279.59 37.4902 280.151 38.833 280.151 40.4932L280.298 106.191C280.298 107.705 279.761 108.999 278.687 110.073C277.612 111.147 276.318 111.685 274.805 111.685C273.291 111.685 271.997 111.123 270.923 110C269.849 108.926 269.312 107.632 269.312 106.118L269.165 39.6875ZM305.127 8.63281C306.934 8.63281 308.35 9.24316 309.375 10.4639C310.449 11.6357 310.986 12.8809 310.986 14.1992V107.217C310.986 108.486 310.4 109.585 309.229 110.513C308.105 111.44 307.007 111.904 305.933 111.904C304.272 111.904 302.856 111.392 301.685 110.366C300.562 109.341 300 108.022 300 106.411V14.3457C300 12.9297 300.513 11.6357 301.538 10.4639C302.563 9.24316 303.76 8.63281 305.127 8.63281ZM328.931 34.8535C329.956 34.8535 330.933 35.1709 331.86 35.8057C332.837 36.4404 333.521 37.1973 333.911 38.0762L360.645 95.8643L383.496 38.4424C383.887 37.4658 384.57 36.6357 385.547 35.9521C386.523 35.2686 387.549 34.9268 388.623 34.9268C390.527 34.9268 392.017 35.7324 393.091 37.3438C394.214 38.9062 394.409 40.6396 393.677 42.5439L361.377 123.55C359.961 127.065 358.057 130.654 355.664 134.316C353.271 137.979 350.293 141.055 346.729 143.545C343.164 146.084 338.916 147.354 333.984 147.354C332.471 147.354 331.177 146.816 330.103 145.742C329.028 144.668 328.491 143.374 328.491 141.86C328.491 140.444 329.004 139.175 330.029 138.052C331.055 136.978 332.275 136.416 333.691 136.367C337.061 136.123 339.868 135.122 342.114 133.364C344.36 131.655 346.24 129.458 347.754 126.772C349.316 124.136 350.635 121.304 351.709 118.276C352.832 115.298 353.931 112.466 355.005 109.78L323.95 42.7637C323.608 41.9824 323.438 41.1768 323.438 40.3467C323.438 38.833 323.975 37.5391 325.049 36.4648C326.123 35.3906 327.417 34.8535 328.931 34.8535ZM477.979 34.5605C484.521 34.5605 490.479 35.9766 495.85 38.8086C501.27 41.6406 505.273 45.498 507.861 50.3809C508.301 51.1621 508.521 52.0166 508.521 52.9443C508.521 54.4092 507.983 55.6543 506.909 56.6797C505.884 57.7051 504.639 58.2178 503.174 58.2178C502.295 58.2178 501.392 57.9492 500.464 57.4121C499.536 56.8262 498.877 56.1426 498.486 55.3613C496.729 52.041 494.043 49.5264 490.43 47.8174C486.865 46.0596 482.69 45.1807 477.905 45.1807C474.878 45.1807 471.582 45.5957 468.018 46.4258C464.453 47.207 461.377 48.5254 458.789 50.3809C456.25 52.1875 454.98 54.6289 454.98 57.7051C454.98 60.0977 456.006 61.9531 458.057 63.2715C460.107 64.5898 462.646 65.5664 465.674 66.2012C468.75 66.7871 471.851 67.2021 474.976 67.4463C478.149 67.6904 480.859 67.9346 483.105 68.1787C487.549 68.6182 491.919 69.4238 496.216 70.5957C500.513 71.7676 504.077 73.6963 506.909 76.3818C509.741 79.0674 511.157 82.9492 511.157 88.0273C511.157 93.4961 509.546 97.9883 506.323 101.504C503.101 104.971 498.975 107.534 493.945 109.194C488.916 110.806 483.691 111.611 478.271 111.611C470.654 111.611 463.745 110.146 457.544 107.217C451.343 104.238 446.777 99.8926 443.848 94.1797C443.457 93.4961 443.262 92.666 443.262 91.6895C443.262 90.2246 443.774 88.9795 444.8 87.9541C445.825 86.9287 447.07 86.416 448.535 86.416C449.463 86.416 450.391 86.709 451.318 87.2949C452.246 87.832 452.905 88.5156 453.296 89.3457C455.396 93.3496 458.618 96.3037 462.964 98.208C467.31 100.063 472.412 100.991 478.271 100.991C481.641 100.991 485.034 100.601 488.452 99.8193C491.919 98.9893 494.8 97.6221 497.095 95.7178C499.438 93.8135 500.61 91.25 500.61 88.0273C500.61 85.4883 499.561 83.5596 497.461 82.2412C495.361 80.874 492.725 79.8975 489.551 79.3115C486.377 78.7256 483.154 78.335 479.883 78.1396C476.66 77.9443 473.877 77.7002 471.533 77.4072C467.383 76.9189 463.208 76.0889 459.009 74.917C454.858 73.6963 451.392 71.7432 448.608 69.0576C445.825 66.3721 444.434 62.5879 444.434 57.7051C444.434 53.6035 445.435 50.1123 447.437 47.2314C449.487 44.3018 452.148 41.9092 455.42 40.0537C458.74 38.1494 462.378 36.7578 466.333 35.8789C470.288 35 474.17 34.5605 477.979 34.5605ZM528.809 14.1992C528.809 12.6855 529.346 11.3916 530.42 10.3174C531.494 9.24316 532.788 8.70605 534.302 8.70605C535.815 8.70605 537.109 9.24316 538.184 10.3174C539.258 11.3916 539.795 12.6855 539.795 14.1992V47.8906C542.236 43.8379 545.435 40.6641 549.39 38.3691C553.345 36.0254 557.275 34.8535 561.182 34.8535C572.07 34.8535 579.785 38.125 584.326 44.668C588.916 51.1621 591.211 59.9023 591.211 70.8887V71.5479L591.138 106.118V106.191C591.138 107.705 590.601 108.999 589.526 110.073C588.452 111.147 587.158 111.685 585.645 111.685C584.131 111.685 582.837 111.147 581.763 110.073C580.688 108.999 580.151 107.705 580.151 106.191V106.118L580.225 71.4014C580.225 63.3936 578.979 57.1191 576.489 52.5781C574.048 48.0371 569.238 45.7666 562.061 45.7666C557.52 45.7666 553.589 46.7188 550.269 48.623C546.948 50.5273 544.385 52.9443 542.578 55.874C540.82 58.8037 539.941 61.7822 539.941 64.8096V106.265C539.941 107.778 539.404 109.072 538.33 110.146C537.256 111.221 535.962 111.758 534.448 111.758C532.837 111.758 531.494 111.196 530.42 110.073C529.346 108.95 528.809 107.681 528.809 106.265V14.1992ZM731.25 35.0732C737.891 35.0732 743.774 36.8311 748.901 40.3467C754.028 43.8623 758.057 48.4766 760.986 54.1895C763.916 59.9023 765.381 66.0791 765.381 72.7197C765.381 77.7002 764.526 82.5098 762.817 87.1484C761.108 91.7871 758.691 95.9375 755.566 99.5996C752.441 103.213 748.755 106.094 744.507 108.242C740.308 110.391 735.669 111.465 730.591 111.465C725.806 111.465 721.436 110.269 717.48 107.876C713.525 105.483 710.059 102.725 707.08 99.5996V132.705C707.08 134.219 706.543 135.513 705.469 136.587C704.395 137.661 703.101 138.198 701.587 138.198C700.073 138.198 698.779 137.661 697.705 136.587C696.631 135.513 696.094 134.219 696.094 132.705V40.4932C696.094 38.9795 696.631 37.6855 697.705 36.6113C698.779 35.5371 700.073 35 701.587 35C703.101 35 704.321 35.5371 705.249 36.6113C706.226 37.6855 706.714 38.9795 706.714 40.4932L707.08 47.5244C709.863 44.6924 713.306 41.9092 717.407 39.1748C721.509 36.4404 726.123 35.0732 731.25 35.0732ZM731.03 46.0596C726.099 46.0596 721.826 47.4023 718.213 50.0879C714.648 52.7734 711.914 56.2402 710.01 60.4883C708.105 64.6875 707.153 69.1064 707.153 73.7451C707.153 78.2861 708.081 82.6074 709.937 86.709C711.841 90.7617 714.551 94.082 718.066 96.6699C721.631 99.209 725.854 100.479 730.737 100.479C735.474 100.479 739.6 99.1357 743.115 96.4502C746.631 93.7158 749.365 90.2246 751.318 85.9766C753.271 81.6797 754.248 77.1875 754.248 72.5C754.248 67.8613 753.271 63.54 751.318 59.5361C749.414 55.4834 746.704 52.2363 743.188 49.7949C739.722 47.3047 735.669 46.0596 731.03 46.0596ZM817.969 111.465C810.889 111.465 804.468 109.707 798.706 106.191C792.993 102.676 788.452 97.9883 785.083 92.1289C781.714 86.2207 780.029 79.751 780.029 72.7197C780.029 66.0303 781.616 59.8535 784.79 54.1895C788.013 48.4766 792.358 43.8867 797.827 40.4199C803.296 36.9531 809.399 35.2197 816.138 35.2197C822.339 35.2197 828.027 36.7578 833.203 39.834C838.428 42.9102 842.603 47.0605 845.728 52.2852C848.901 57.4609 850.488 63.2227 850.488 69.5703C850.488 71.8164 850.073 73.7451 849.243 75.3564C848.462 76.9678 846.997 77.7734 844.849 77.7734H791.528C792.31 81.8262 793.896 85.5859 796.289 89.0527C798.73 92.4707 801.782 95.2295 805.444 97.3291C809.155 99.4287 813.281 100.479 817.822 100.479C821.68 100.479 825.464 99.624 829.175 97.915C832.886 96.2061 835.938 93.8623 838.33 90.8838C839.404 89.4678 840.845 88.7598 842.651 88.7598C844.165 88.7598 845.459 89.2969 846.533 90.3711C847.607 91.4453 848.145 92.7393 848.145 94.2529C848.145 95.5713 847.705 96.7676 846.826 97.8418C843.311 102.139 838.989 105.483 833.862 107.876C828.784 110.269 823.486 111.465 817.969 111.465ZM839.282 66.9336C838.843 63.125 837.549 59.6582 835.4 56.5332C833.252 53.3594 830.518 50.8447 827.197 48.9893C823.877 47.1338 820.215 46.2061 816.211 46.2061C812.061 46.2061 808.276 47.1582 804.858 49.0625C801.44 50.9668 798.584 53.4814 796.289 56.6064C794.043 59.7314 792.505 63.1738 791.675 66.9336H839.282ZM901.318 34.5605C907.861 34.5605 913.818 35.9766 919.189 38.8086C924.609 41.6406 928.613 45.498 931.201 50.3809C931.641 51.1621 931.86 52.0166 931.86 52.9443C931.86 54.4092 931.323 55.6543 930.249 56.6797C929.224 57.7051 927.979 58.2178 926.514 58.2178C925.635 58.2178 924.731 57.9492 923.804 57.4121C922.876 56.8262 922.217 56.1426 921.826 55.3613C920.068 52.041 917.383 49.5264 913.77 47.8174C910.205 46.0596 906.03 45.1807 901.245 45.1807C898.218 45.1807 894.922 45.5957 891.357 46.4258C887.793 47.207 884.717 48.5254 882.129 50.3809C879.59 52.1875 878.32 54.6289 878.32 57.7051C878.32 60.0977 879.346 61.9531 881.396 63.2715C883.447 64.5898 885.986 65.5664 889.014 66.2012C892.09 66.7871 895.19 67.2021 898.315 67.4463C901.489 67.6904 904.199 67.9346 906.445 68.1787C910.889 68.6182 915.259 69.4238 919.556 70.5957C923.853 71.7676 927.417 73.6963 930.249 76.3818C933.081 79.0674 934.497 82.9492 934.497 88.0273C934.497 93.4961 932.886 97.9883 929.663 101.504C926.44 104.971 922.314 107.534 917.285 109.194C912.256 110.806 907.031 111.611 901.611 111.611C893.994 111.611 887.085 110.146 880.884 107.217C874.683 104.238 870.117 99.8926 867.188 94.1797C866.797 93.4961 866.602 92.666 866.602 91.6895C866.602 90.2246 867.114 88.9795 868.14 87.9541C869.165 86.9287 870.41 86.416 871.875 86.416C872.803 86.416 873.73 86.709 874.658 87.2949C875.586 87.832 876.245 88.5156 876.636 89.3457C878.735 93.3496 881.958 96.3037 886.304 98.208C890.649 100.063 895.752 100.991 901.611 100.991C904.98 100.991 908.374 100.601 911.792 99.8193C915.259 98.9893 918.14 97.6221 920.435 95.7178C922.778 93.8135 923.95 91.25 923.95 88.0273C923.95 85.4883 922.9 83.5596 920.801 82.2412C918.701 80.874 916.064 79.8975 912.891 79.3115C909.717 78.7256 906.494 78.335 903.223 78.1396C900 77.9443 897.217 77.7002 894.873 77.4072C890.723 76.9189 886.548 76.0889 882.349 74.917C878.198 73.6963 874.731 71.7432 871.948 69.0576C869.165 66.3721 867.773 62.5879 867.773 57.7051C867.773 53.6035 868.774 50.1123 870.776 47.2314C872.827 44.3018 875.488 41.9092 878.76 40.0537C882.08 38.1494 885.718 36.7578 889.673 35.8789C893.628 35 897.51 34.5605 901.318 34.5605Z" fill="black"/>
<path fill-rule="evenodd" clip-rule="evenodd" d="M638.245 36.1433C639.729 33.2001 643.936 33.2145 645.4 36.1678L679.136 104.223C680.454 106.882 678.52 110 675.553 110H607.497C604.517 110 602.584 106.859 603.925 104.199L638.245 36.1433Z" fill="black"/>
</svg>
