<svg width="131" height="129" viewBox="0 0 131 129" fill="none" xmlns="http://www.w3.org/2000/svg">
<g clip-path="url(#clip0_9_218)">
<path fill-rule="evenodd" clip-rule="evenodd" d="M35.2905 45.5209C36.9668 44.082 39.4921 44.2744 40.931 45.9507L61.5104 69.9247C62.9493 71.601 62.7569 74.1263 61.0806 75.5652L37.1065 96.1446C35.4303 97.5835 32.9049 97.391 31.466 95.7148L10.8867 71.7407C9.4478 70.0645 9.64022 67.5391 11.3165 66.1002L35.2905 45.5209Z" fill="black"/>
<path fill-rule="evenodd" clip-rule="evenodd" d="M116.275 52.7429C123.876 61.5979 122.859 74.9383 114.004 82.5394C105.149 90.1405 91.8088 89.124 84.2078 80.2691C76.6067 71.4141 77.3754 57.7851 86.2304 50.184C95.0853 42.5829 108.674 43.888 116.275 52.7429Z" fill="black"/>
<path fill-rule="evenodd" clip-rule="evenodd" d="M78.7011 19.4631C81.7468 18.8836 84.2654 21.8396 83.2096 24.7547L72.0826 55.4785C71.0399 58.3576 67.281 59.0452 65.2865 56.7217L44.1778 32.131C42.1748 29.7976 43.4444 26.1709 46.4654 25.5961L78.7011 19.4631Z" fill="black"/>
</g>
<defs>
<clipPath id="clip0_9_218">
<rect width="129.104" height="128.922" fill="white" transform="translate(0.933105)"/>
</clipPath>
</defs>
</svg>
